<svg width="22" height="22" viewBox="0 0 22 22" fill="none" xmlns="http://www.w3.org/2000/svg">
    <path
        d="M12.3422 18H20.5205C20.7803 18 21.0355 17.9307 21.2604 17.7991C21.4854 17.6674 21.6722 17.478 21.802 17.25C21.9318 17.0219 22.0001 16.7632 22 16.4999C21.9999 16.2366 21.9314 15.978 21.8013 15.7501L16.309 6.10721C16.1792 5.87921 15.9924 5.68987 15.7675 5.55823C15.5426 5.42659 15.2875 5.35728 15.0278 5.35728C14.7681 5.35728 14.5129 5.42659 14.288 5.55823C14.0631 5.68987 13.8764 5.87921 13.7466 6.10721L12.3422 8.57448L9.59643 3.74982C9.4665 3.52184 9.27967 3.33253 9.0547 3.20091C8.82974 3.06929 8.57456 3 8.3148 3C8.05505 3 7.79987 3.06929 7.57491 3.20091C7.34994 3.33253 7.16311 3.52184 7.03318 3.74982L0.198647 15.7501C0.068626 15.978 0.000113162 16.2366 1.40061e-07 16.4999C-0.000112882 16.7632 0.0681779 17.0219 0.198004 17.25C0.327829 17.478 0.514612 17.6674 0.739566 17.7991C0.96452 17.9307 1.21971 18 1.47947 18H6.61315C8.64717 18 10.1472 17.0944 11.1793 15.3275L13.6852 10.9286L15.0274 8.57448L19.0556 15.6458H13.6852L12.3422 18ZM6.52946 15.6434L2.94681 15.6426L8.3172 6.21466L10.9968 10.9286L9.2027 14.0794C8.51725 15.2257 7.73855 15.6434 6.52946 15.6434Z"
        fill="black" />
</svg>