<svg width="22" height="22" viewBox="0 0 22 22" fill="none" xmlns="http://www.w3.org/2000/svg">
    <path d="M18.883 16.9512H11.3573L12.5931 14.9301H15.7226L18.9219 16.9507C18.9089 16.951 18.896 16.9512 18.883 16.9512Z" fill="black" />
    <path
        d="M8.83063 4.71691L9.00332 5.00001H6.29911L6.47193 4.71691C6.59149 4.52118 6.76341 4.35865 6.97043 4.24565C7.17744 4.13265 7.41226 4.07316 7.65128 4.07316C7.8903 4.07316 8.12512 4.13265 8.33213 4.24565C8.53915 4.35865 8.71107 4.52118 8.83063 4.71691Z"
        fill="black" />
    <path
        d="M4.54632 7.87137L0.182796 15.0195C0.0631502 15.2152 0.000104771 15.4373 1.27301e-07 15.6633C-0.000103234 15.8894 0.0627379 16.1115 0.182204 16.3073C0.301669 16.5031 0.473547 16.6657 0.680549 16.7787C0.887551 16.8917 1.12238 16.9512 1.36141 16.9512H6.08541C7.95712 16.9512 9.33743 16.1737 10.2872 14.6568L11.6795 12.3765L9.89418 11.249L8.46832 13.5852C7.83757 14.5694 7.12101 14.928 6.0084 14.928L2.71165 14.9273L6.33127 8.99871L4.54632 7.87137Z"
        fill="black" />
    <path
        d="M13.2553 9.36029L14.8282 6.78589L18.2144 12.3319L21.14 14.085C21.2088 13.9287 21.2445 13.7606 21.2444 13.5902C21.2443 13.3641 21.1812 13.1421 21.0616 12.9464L16.0075 4.66765C15.8881 4.47191 15.7162 4.30935 15.5093 4.19633C15.3023 4.08331 15.0676 4.02381 14.8286 4.02381C14.5896 4.02381 14.3548 4.08331 14.1478 4.19633C13.9409 4.30935 13.769 4.47191 13.6496 4.66765L12.3573 6.78589L9.83063 2.64375C9.71107 2.44802 9.53915 2.28549 9.33213 2.17249C9.12512 2.05949 8.8903 2 8.65128 2C8.41226 2 8.17744 2.05949 7.97043 2.17249C7.76341 2.28549 7.59149 2.44802 7.47193 2.64375L6.01891 5.02404L7.82973 6.10913L8.65348 4.7599L10.4219 7.66244L13.2553 9.36029Z"
        fill="black" />
    <path d="M1.00614 13.7128L1.00585 13.4715C1.00198 13.5108 1.00002 13.5504 1 13.5902C0.999982 13.6312 1.00204 13.6722 1.00614 13.7128Z"
        fill="black" />
    <path d="M1 6L20.8537 18.3415" stroke="black" stroke-width="2" />
</svg>