<svg width="22" height="22" viewBox="0 0 22 22" fill="none" xmlns="http://www.w3.org/2000/svg">
    <path fill-rule="evenodd" clip-rule="evenodd"
        d="M12.9861 16.9948H12.3422L12.6749 16.4508C12.7684 16.6385 12.8724 16.8201 12.9861 16.9948ZM17.9019 8.50814L16.309 5.899C16.1792 5.68627 15.9924 5.50962 15.7675 5.3868C15.5426 5.26398 15.2875 5.19932 15.0278 5.19932C14.7681 5.19932 14.5129 5.26398 14.288 5.3868C14.0631 5.50962 13.8764 5.68627 13.7466 5.899L12.3422 8.20092L9.59643 3.69958C9.4665 3.48687 9.27967 3.31024 9.0547 3.18745C8.82974 3.06465 8.57456 3 8.3148 3C8.05505 3 7.79987 3.06465 7.57491 3.18745C7.34994 3.31024 7.16311 3.48687 7.03318 3.69958L0.198648 14.8957C0.0686261 15.1083 0.00011331 15.3496 1.39694e-07 15.5953C-0.000112734 15.8409 0.068178 16.0823 0.198004 16.2951C0.32783 16.5078 0.514613 16.6845 0.739566 16.8074C0.96452 16.9302 1.21971 16.9949 1.47948 16.9948H6.61315C8.64717 16.9948 10.1472 16.1499 11.1793 14.5015L12.239 12.7659C12.5093 11.5869 13.1586 10.5524 14.0518 9.79746L15.0274 8.20092L15.4709 8.92727C16.1258 8.65208 16.8451 8.5 17.6 8.5C17.7013 8.5 17.8019 8.50274 17.9019 8.50814ZM2.94681 14.7954L6.52946 14.7962C7.73855 14.7962 8.51725 14.4065 9.2027 13.3369L10.9968 10.3973L8.3172 5.99924L2.94681 14.7954Z"
        fill="black" />
    <path fill-rule="evenodd" clip-rule="evenodd"
        d="M17.6 18.4C20.03 18.4 22 16.43 22 14C22 11.5699 20.03 9.59998 17.6 9.59998C15.1699 9.59998 13.2 11.5699 13.2 14C13.2 16.43 15.1699 18.4 17.6 18.4ZM16.9984 14.9727V15.0267H17.8109V14.9727C17.8147 14.7549 17.8393 14.5722 17.8848 14.4244C17.9303 14.2767 18.0022 14.1489 18.1007 14.0409C18.2011 13.933 18.3318 13.8288 18.4928 13.7284C18.6632 13.6261 18.809 13.5087 18.9303 13.3761C19.0534 13.2436 19.1481 13.093 19.2143 12.9244C19.2806 12.754 19.3138 12.5627 19.3138 12.3506C19.3138 12.0419 19.2409 11.772 19.095 11.5409C18.9511 11.308 18.7484 11.1271 18.4871 10.9983C18.2257 10.8676 17.9208 10.8023 17.5723 10.8023C17.2541 10.8023 16.9634 10.8629 16.7001 10.9841C16.4388 11.1053 16.2286 11.2843 16.0695 11.521C15.9104 11.7559 15.8242 12.0438 15.8109 12.3847H16.6746C16.6878 12.1839 16.738 12.0201 16.8251 11.8932C16.9123 11.7644 17.0221 11.6697 17.1547 11.6091C17.2873 11.5485 17.4265 11.5182 17.5723 11.5182C17.7333 11.5182 17.8791 11.5523 18.0098 11.6205C18.1424 11.6867 18.2484 11.7814 18.328 11.9045C18.4075 12.0277 18.4473 12.1735 18.4473 12.342C18.4473 12.4822 18.4208 12.61 18.3678 12.7256C18.3147 12.8411 18.2428 12.9434 18.1518 13.0324C18.0609 13.1214 17.9587 13.2019 17.845 13.2739C17.6689 13.3799 17.5183 13.4973 17.3933 13.6261C17.2683 13.7549 17.1717 13.9235 17.1036 14.1318C17.0373 14.3402 17.0022 14.6205 16.9984 14.9727ZM17.0268 16.5892C17.1386 16.6991 17.2721 16.754 17.4274 16.754C17.5316 16.754 17.6263 16.7284 17.7115 16.6773C17.7967 16.6261 17.8649 16.558 17.9161 16.4727C17.9691 16.3856 17.9956 16.29 17.9956 16.1858C17.9956 16.0305 17.9388 15.8979 17.8251 15.7881C17.7134 15.6763 17.5808 15.6205 17.4274 15.6205C17.2721 15.6205 17.1386 15.6763 17.0268 15.7881C16.9151 15.8979 16.8592 16.0305 16.8592 16.1858C16.8592 16.343 16.9151 16.4775 17.0268 16.5892Z"
        fill="black" />
</svg>