<svg viewBox="0 0 24 24" xmlns="http://www.w3.org/2000/svg">
    <path fill="none" d="M0 0h24v24H0Z" />
    <g>
        <path
            d="M11.5 3.87l8 4.5 -.51-.88v9l.5-.88 -8 4.5h.98l-8-4.5 .5.87v-9l-.51.87 8-4.5c.48-.28.65-.89.38-1.37 -.28-.49-.89-.66-1.37-.39l-8 4.5c-.32.17-.51.51-.51.87v9c0 .36.19.69.5.87l8 4.5c.3.17.67.17.98 0l8-4.5c.31-.18.5-.52.5-.88v-9c0-.37-.2-.7-.51-.88l-8-4.5c-.49-.28-1.1-.11-1.37.38 -.28.48-.11 1.09.38 1.36Z" />
        <path d="M12.49 12.87l8-4.5c.48-.28.65-.89.38-1.37 -.28-.49-.89-.66-1.37-.39l-8 4.5c-.49.27-.66.88-.39 1.36 .27.48.88.65 1.36.38Z" />
        <path d="M11 12v9c0 .55.44 1 1 1 .55 0 1-.45 1-1v-9c0-.56-.45-1-1-1 -.56 0-1 .44-1 1Z" />
        <path d="M12.49 11.12l-8-4.5C4 6.34 3.39 6.51 3.12 7c-.28.48-.11 1.09.38 1.36l8 4.5c.48.27 1.09.1 1.36-.39s.1-1.1-.39-1.37Z" />
    </g>
</svg>