<svg viewBox="0 0 24 24" xmlns="http://www.w3.org/2000/svg">
    <path fill="none" d="M0 0h24v24H0Z" />
    <g>
        <path
            d="M19.38 7.13c.38.21.62.62.61 1.07l-.01 7.29c0 .44-.25.85-.64 1.07l-6.81 4.3c-.33.17-.79.17-1.17-.04l-6.7-4.24c-.45-.25-.7-.66-.7-1.11l0-7.29c0-.45.24-.86.63-1.08l6.77-4c.37-.21.85-.21 1.25.01l6.72 3.96 .5-.87v-1h-.04c-1.03 0-1.39 1.36-.5 1.86Zm.98-1.74l-.5.86v1l.03-.001c1.01 0 1.38-1.35.5-1.87l-6.75-3.98c-1.03-.57-2.24-.57-3.25-.02l-6.78 3.99c-1.01.55-1.66 1.63-1.66 2.8v7.285c0 1.17.64 2.26 1.67 2.82l6.69 4.23c1.03.56 2.22.56 3.19.03l6.8-4.31c.98-.54 1.62-1.62 1.62-2.8V8.13c0-1.17-.62-2.25-1.64-2.82Z" />
        <path
            d="M8 12c0 2.2 1.79 4 4 4 2.2 0 4-1.8 4-4 0-2.21-1.8-4-4-4 -2.21 0-4 1.79-4 4 0 .55.44 1 1 1 .55 0 1-.45 1-1 0-1.11.89-2 2-2 1.1 0 2 .89 2 2 0 1.1-.9 2-2 2 -1.11 0-2-.9-2-2 0-.56-.45-1-1-1 -.56 0-1 .44-1 1Z" />
    </g>
</svg>